%TF.GenerationSoftware,KiCad,Pcbnew,7.0.4-0*%
%TF.CreationDate,2024-03-15T14:37:27+08:00*%
%TF.ProjectId,hw,68772e6b-6963-4616-945f-706362585858,rev?*%
%TF.SameCoordinates,Original*%
%TF.FileFunction,Soldermask,Bot*%
%TF.FilePolarity,Negative*%
%FSLAX46Y46*%
G04 Gerber Fmt 4.6, Leading zero omitted, Abs format (unit mm)*
G04 Created by KiCad (PCBNEW 7.0.4-0) date 2024-03-15 14:37:27*
%MOMM*%
%LPD*%
G01*
G04 APERTURE LIST*
G04 Aperture macros list*
%AMRoundRect*
0 Rectangle with rounded corners*
0 $1 Rounding radius*
0 $2 $3 $4 $5 $6 $7 $8 $9 X,Y pos of 4 corners*
0 Add a 4 corners polygon primitive as box body*
4,1,4,$2,$3,$4,$5,$6,$7,$8,$9,$2,$3,0*
0 Add four circle primitives for the rounded corners*
1,1,$1+$1,$2,$3*
1,1,$1+$1,$4,$5*
1,1,$1+$1,$6,$7*
1,1,$1+$1,$8,$9*
0 Add four rect primitives between the rounded corners*
20,1,$1+$1,$2,$3,$4,$5,0*
20,1,$1+$1,$4,$5,$6,$7,0*
20,1,$1+$1,$6,$7,$8,$9,0*
20,1,$1+$1,$8,$9,$2,$3,0*%
G04 Aperture macros list end*
%ADD10RoundRect,0.225000X0.250000X-0.225000X0.250000X0.225000X-0.250000X0.225000X-0.250000X-0.225000X0*%
%ADD11RoundRect,0.140000X0.140000X0.170000X-0.140000X0.170000X-0.140000X-0.170000X0.140000X-0.170000X0*%
%ADD12RoundRect,0.135000X0.185000X-0.135000X0.185000X0.135000X-0.185000X0.135000X-0.185000X-0.135000X0*%
%ADD13RoundRect,0.062500X0.062500X-0.375000X0.062500X0.375000X-0.062500X0.375000X-0.062500X-0.375000X0*%
%ADD14RoundRect,0.062500X0.375000X-0.062500X0.375000X0.062500X-0.375000X0.062500X-0.375000X-0.062500X0*%
%ADD15R,3.450000X3.450000*%
%ADD16RoundRect,0.135000X-0.135000X-0.185000X0.135000X-0.185000X0.135000X0.185000X-0.135000X0.185000X0*%
%ADD17RoundRect,0.250000X-0.250000X-2.500000X0.250000X-2.500000X0.250000X2.500000X-0.250000X2.500000X0*%
%ADD18RoundRect,0.250000X-0.550000X-1.250000X0.550000X-1.250000X0.550000X1.250000X-0.550000X1.250000X0*%
%ADD19R,1.300000X0.300000*%
%ADD20R,2.200000X1.800000*%
%ADD21RoundRect,0.140000X0.170000X-0.140000X0.170000X0.140000X-0.170000X0.140000X-0.170000X-0.140000X0*%
%ADD22RoundRect,0.135000X0.135000X0.185000X-0.135000X0.185000X-0.135000X-0.185000X0.135000X-0.185000X0*%
%ADD23RoundRect,0.225000X-0.225000X-0.375000X0.225000X-0.375000X0.225000X0.375000X-0.225000X0.375000X0*%
%ADD24RoundRect,0.150000X-0.512500X-0.150000X0.512500X-0.150000X0.512500X0.150000X-0.512500X0.150000X0*%
%ADD25R,0.800000X0.900000*%
%ADD26RoundRect,0.225000X-0.250000X0.225000X-0.250000X-0.225000X0.250000X-0.225000X0.250000X0.225000X0*%
%ADD27RoundRect,0.150000X0.587500X0.150000X-0.587500X0.150000X-0.587500X-0.150000X0.587500X-0.150000X0*%
%ADD28RoundRect,0.140000X-0.140000X-0.170000X0.140000X-0.170000X0.140000X0.170000X-0.140000X0.170000X0*%
G04 APERTURE END LIST*
D10*
%TO.C,C1*%
X131920000Y-64090000D03*
X131920000Y-62540000D03*
%TD*%
D11*
%TO.C,C4*%
X148330000Y-71290000D03*
X147370000Y-71290000D03*
%TD*%
D12*
%TO.C,R1*%
X140420000Y-77870000D03*
X140420000Y-76850000D03*
%TD*%
D13*
%TO.C,U2*%
X143910000Y-75390000D03*
X143410000Y-75390000D03*
X142910000Y-75390000D03*
X142410000Y-75390000D03*
X141910000Y-75390000D03*
X141410000Y-75390000D03*
X140910000Y-75390000D03*
X140410000Y-75390000D03*
D14*
X139722500Y-74702500D03*
X139722500Y-74202500D03*
X139722500Y-73702500D03*
X139722500Y-73202500D03*
X139722500Y-72702500D03*
X139722500Y-72202500D03*
X139722500Y-71702500D03*
X139722500Y-71202500D03*
D13*
X140410000Y-70515000D03*
X140910000Y-70515000D03*
X141410000Y-70515000D03*
X141910000Y-70515000D03*
X142410000Y-70515000D03*
X142910000Y-70515000D03*
X143410000Y-70515000D03*
X143910000Y-70515000D03*
D14*
X144597500Y-71202500D03*
X144597500Y-71702500D03*
X144597500Y-72202500D03*
X144597500Y-72702500D03*
X144597500Y-73202500D03*
X144597500Y-73702500D03*
X144597500Y-74202500D03*
X144597500Y-74702500D03*
D15*
X142160000Y-72952500D03*
%TD*%
D16*
%TO.C,R4*%
X133590000Y-73210000D03*
X134610000Y-73210000D03*
%TD*%
D17*
%TO.C,J2*%
X139050000Y-63880000D03*
X141050000Y-63880000D03*
X143050000Y-63880000D03*
X145050000Y-63880000D03*
D18*
X136650000Y-66130000D03*
X147450000Y-66130000D03*
%TD*%
D16*
%TO.C,R3*%
X133590001Y-74200000D03*
X134610001Y-74200000D03*
%TD*%
D19*
%TO.C,J1*%
X129850000Y-80250000D03*
X129850000Y-79750000D03*
X129850000Y-79250000D03*
X129850000Y-78750000D03*
X129850000Y-78250000D03*
X129850000Y-77750000D03*
X129850000Y-77250000D03*
X129850000Y-76750000D03*
X129850000Y-76250000D03*
X129850000Y-75750000D03*
X129850000Y-75250000D03*
X129850000Y-74750000D03*
X129850000Y-74250000D03*
X129850000Y-73750000D03*
X129850000Y-73250000D03*
X129850000Y-72750000D03*
X129850000Y-72250000D03*
X129850000Y-71750000D03*
X129850000Y-71250000D03*
X129850000Y-70750000D03*
X129850000Y-70250000D03*
X129850000Y-69750000D03*
X129850000Y-69250000D03*
X129850000Y-68750000D03*
X129850000Y-68250000D03*
X129850000Y-67750000D03*
X129850000Y-67250000D03*
X129850000Y-66750000D03*
X129850000Y-66250000D03*
X129850000Y-65750000D03*
D20*
X126600000Y-82150000D03*
X126600000Y-63850000D03*
%TD*%
D11*
%TO.C,C3*%
X148330000Y-75110000D03*
X147370000Y-75110000D03*
%TD*%
D21*
%TO.C,C8*%
X142390000Y-77820000D03*
X142390000Y-76860000D03*
%TD*%
D12*
%TO.C,R2*%
X141410000Y-77870000D03*
X141410000Y-76850000D03*
%TD*%
D22*
%TO.C,R8*%
X134610000Y-72220000D03*
X133590000Y-72220000D03*
%TD*%
D23*
%TO.C,D1*%
X133400000Y-62230000D03*
X136700000Y-62230000D03*
%TD*%
D24*
%TO.C,U1*%
X132100000Y-67500000D03*
X132100000Y-66550000D03*
X132100000Y-65600000D03*
X134375000Y-65600000D03*
X134375000Y-67500000D03*
%TD*%
D25*
%TO.C,Y1*%
X146910000Y-73900000D03*
X146910000Y-72500000D03*
X148010000Y-72500000D03*
X148010000Y-73900000D03*
%TD*%
D11*
%TO.C,C5*%
X139470000Y-76890000D03*
X138510000Y-76890000D03*
%TD*%
D26*
%TO.C,C2*%
X135810000Y-69885000D03*
X135810000Y-71435000D03*
%TD*%
D27*
%TO.C,Q1*%
X134047500Y-69050000D03*
X134047500Y-70950000D03*
X132172500Y-70000000D03*
%TD*%
D22*
%TO.C,R6*%
X132630000Y-73210000D03*
X131610000Y-73210000D03*
%TD*%
%TO.C,R5*%
X132630000Y-74200000D03*
X131610000Y-74200000D03*
%TD*%
D21*
%TO.C,C7*%
X131570000Y-80310000D03*
X131570000Y-79350000D03*
%TD*%
D11*
%TO.C,C9*%
X148332500Y-76077500D03*
X147372500Y-76077500D03*
%TD*%
D22*
%TO.C,R7*%
X132630000Y-72220000D03*
X131610000Y-72220000D03*
%TD*%
D28*
%TO.C,C6*%
X131620000Y-75180000D03*
X132580000Y-75180000D03*
%TD*%
M02*
