%TF.GenerationSoftware,KiCad,Pcbnew,7.0.4-0*%
%TF.CreationDate,2024-03-15T14:37:27+08:00*%
%TF.ProjectId,hw,68772e6b-6963-4616-945f-706362585858,rev?*%
%TF.SameCoordinates,Original*%
%TF.FileFunction,Copper,L1,Top*%
%TF.FilePolarity,Positive*%
%FSLAX46Y46*%
G04 Gerber Fmt 4.6, Leading zero omitted, Abs format (unit mm)*
G04 Created by KiCad (PCBNEW 7.0.4-0) date 2024-03-15 14:37:27*
%MOMM*%
%LPD*%
G01*
G04 APERTURE LIST*
%TA.AperFunction,SMDPad,CuDef*%
%ADD10C,1.000000*%
%TD*%
%TA.AperFunction,ComponentPad*%
%ADD11R,0.900000X0.500000*%
%TD*%
%TA.AperFunction,ViaPad*%
%ADD12C,0.400000*%
%TD*%
%TA.AperFunction,Conductor*%
%ADD13C,0.203200*%
%TD*%
%TA.AperFunction,Conductor*%
%ADD14C,0.406400*%
%TD*%
%TA.AperFunction,Conductor*%
%ADD15C,0.152400*%
%TD*%
%TA.AperFunction,Conductor*%
%ADD16C,0.508000*%
%TD*%
G04 APERTURE END LIST*
D10*
%TO.P,TP6,1,1*%
%TO.N,/DBG_RX*%
X147700000Y-66020000D03*
%TD*%
%TO.P,TP5,1,1*%
%TO.N,/DBG_TX*%
X147700000Y-68070000D03*
%TD*%
%TO.P,TP7,1,1*%
%TO.N,GND*%
X147700000Y-70120000D03*
%TD*%
D11*
%TO.P,AE1,2*%
%TO.N,GND*%
X147900000Y-79400000D03*
%TD*%
D12*
%TO.N,GND*%
X125000000Y-61000000D03*
X129000000Y-85000000D03*
X117000000Y-61000000D03*
X101000000Y-81000000D03*
X141064000Y-71804000D03*
X137000000Y-79000000D03*
X146628223Y-77818223D03*
X113000000Y-85000000D03*
X136700000Y-71100000D03*
X144050000Y-77710000D03*
X134940000Y-68310000D03*
X111000000Y-85000000D03*
X101000000Y-75000000D03*
X133000000Y-61000000D03*
X143350000Y-71804000D03*
X127830000Y-70020000D03*
X117000000Y-85000000D03*
X138790000Y-70650000D03*
X146100000Y-72530000D03*
X145820000Y-77010000D03*
X144650000Y-70460000D03*
X125000000Y-85000000D03*
X143241777Y-76901777D03*
X145011777Y-76201777D03*
X119000000Y-85000000D03*
X133200000Y-75180000D03*
X134810000Y-69830000D03*
X113000000Y-61000000D03*
X149000000Y-71000000D03*
X127830000Y-78020000D03*
X127830000Y-80020000D03*
X149000000Y-61000000D03*
X121000000Y-85000000D03*
X101000000Y-85000000D03*
X101000000Y-65000000D03*
X135200000Y-70700000D03*
X132640000Y-63280000D03*
X123000000Y-85000000D03*
X101000000Y-69000000D03*
X123000000Y-61000000D03*
X147000000Y-61000000D03*
X131000000Y-85000000D03*
X109000000Y-85000000D03*
X146730000Y-71690000D03*
X130970000Y-71600000D03*
X107000000Y-61000000D03*
X143350000Y-72947000D03*
X141064000Y-72947000D03*
X107000000Y-85000000D03*
X132270000Y-76250000D03*
X127830000Y-76020000D03*
X115000000Y-61000000D03*
X101000000Y-83000000D03*
X132110000Y-70880000D03*
X147000000Y-79000000D03*
X131000000Y-61000000D03*
X149000000Y-65000000D03*
X145000000Y-61000000D03*
X129000000Y-61000000D03*
X139000000Y-79000000D03*
X135000000Y-61000000D03*
X111000000Y-61000000D03*
X142207000Y-71804000D03*
X101000000Y-67000000D03*
X149000000Y-77000000D03*
X101000000Y-71000000D03*
X133000000Y-83000000D03*
X141064000Y-74090000D03*
X127830000Y-68020000D03*
X145000000Y-79000000D03*
X149000000Y-73000000D03*
X101000000Y-61000000D03*
X143460000Y-68160000D03*
X133480000Y-66540000D03*
X143350000Y-74090000D03*
X105000000Y-85000000D03*
X149000000Y-63000000D03*
X134920000Y-66520000D03*
X101000000Y-79000000D03*
X144650000Y-78300000D03*
X137000000Y-61000000D03*
X127830000Y-66020000D03*
X127000000Y-61000000D03*
X101000000Y-77000000D03*
X149000000Y-79000000D03*
X127830000Y-74020000D03*
X115000000Y-85000000D03*
X145350000Y-68380000D03*
X101000000Y-63000000D03*
X103000000Y-61000000D03*
X101000000Y-73000000D03*
X142207000Y-74090000D03*
X142207000Y-72947000D03*
X132010000Y-69000000D03*
X127000000Y-85000000D03*
X109000000Y-61000000D03*
X133000000Y-85000000D03*
X149000000Y-69000000D03*
X141000000Y-79000000D03*
X105000000Y-61000000D03*
X134960000Y-71520000D03*
X143000000Y-79000000D03*
X119000000Y-61000000D03*
X133000000Y-79000000D03*
X135000000Y-79000000D03*
X103000000Y-85000000D03*
X121000000Y-61000000D03*
X146520000Y-68380000D03*
X149000000Y-67000000D03*
X127830000Y-72020000D03*
X133000000Y-81000000D03*
X149000000Y-75000000D03*
%TO.N,/MCU_VCC*%
X131570000Y-78860000D03*
X133110000Y-73720000D03*
X139700000Y-77870000D03*
X135810000Y-69040000D03*
X143160000Y-76190000D03*
X145395000Y-74455000D03*
X139700000Y-70520000D03*
X139040000Y-73700000D03*
X132630000Y-71680000D03*
%TO.N,/DBG_TX*%
X146590000Y-69190000D03*
%TO.N,/DBG_RX*%
X145950000Y-69160000D03*
%TO.N,/TFT_DC*%
X134132713Y-76752713D03*
X132830000Y-76750000D03*
%TO.N,/TFT_CS*%
X131110000Y-73210000D03*
X130710000Y-77750000D03*
%TO.N,Net-(Q1-B)*%
X133590000Y-71700000D03*
X134050000Y-69720000D03*
%TO.N,/TFT_RST*%
X131610000Y-74700000D03*
X131140000Y-78250000D03*
%TO.N,Net-(D1-K)*%
X131920000Y-68070000D03*
X131920000Y-65070000D03*
%TD*%
D13*
%TO.N,/MCU_VCC*%
X144895000Y-74455000D02*
X145395000Y-74455000D01*
X131570000Y-78860000D02*
X131594000Y-78836000D01*
D14*
X139700000Y-70520000D02*
X139700000Y-73720000D01*
D13*
X133596000Y-70217026D02*
X133596000Y-69531947D01*
X132630000Y-71183026D02*
X133596000Y-70217026D01*
D14*
X139040000Y-73700000D02*
X139680000Y-73700000D01*
D13*
X131594000Y-78836000D02*
X131594000Y-75596000D01*
X134087947Y-69040000D02*
X135810000Y-69040000D01*
D14*
X139680000Y-73700000D02*
X139700000Y-73720000D01*
D13*
X143160000Y-76190000D02*
X144895000Y-74455000D01*
X131594000Y-75596000D02*
X133110000Y-74080000D01*
X133596000Y-69531947D02*
X134087947Y-69040000D01*
D14*
X139700000Y-73720000D02*
X139700000Y-77870000D01*
D13*
X133110000Y-74080000D02*
X133110000Y-73720000D01*
X132630000Y-71680000D02*
X132630000Y-71183026D01*
D15*
%TO.N,/DBG_TX*%
X146590000Y-69190000D02*
X146590000Y-69180000D01*
X146590000Y-69180000D02*
X147700000Y-68070000D01*
%TO.N,/DBG_RX*%
X145950000Y-67770000D02*
X147700000Y-66020000D01*
X145950000Y-69160000D02*
X145950000Y-67770000D01*
%TO.N,/TFT_DC*%
X132830000Y-76750000D02*
X134130000Y-76750000D01*
X134130000Y-76750000D02*
X134132713Y-76752713D01*
%TO.N,/TFT_CS*%
X130710000Y-77750000D02*
X130710000Y-74993868D01*
X130710000Y-74993868D02*
X131110000Y-74593868D01*
X131110000Y-74593868D02*
X131110000Y-73210000D01*
%TO.N,Net-(Q1-B)*%
X133590000Y-70690000D02*
X133590000Y-71700000D01*
X134050000Y-69720000D02*
X134050000Y-70230000D01*
X134050000Y-70230000D02*
X133590000Y-70690000D01*
%TO.N,/TFT_RST*%
X131140000Y-78250000D02*
X131140000Y-75170000D01*
X131140000Y-75170000D02*
X131610000Y-74700000D01*
D16*
%TO.N,Net-(D1-K)*%
X131920000Y-65070000D02*
X131920000Y-68070000D01*
%TD*%
%TA.AperFunction,Conductor*%
%TO.N,GND*%
G36*
X149373138Y-60617593D02*
G01*
X149398858Y-60662142D01*
X149400000Y-60675200D01*
X149400000Y-79214800D01*
X149382407Y-79263138D01*
X149337858Y-79288858D01*
X149324800Y-79290000D01*
X133400000Y-79290000D01*
X133400000Y-85324800D01*
X133382407Y-85373138D01*
X133337858Y-85398858D01*
X133324800Y-85400000D01*
X100675200Y-85400000D01*
X100626862Y-85382407D01*
X100601142Y-85337858D01*
X100600000Y-85324800D01*
X100600000Y-77750000D01*
X130301268Y-77750000D01*
X130321273Y-77876306D01*
X130334377Y-77902024D01*
X130379329Y-77990247D01*
X130469753Y-78080671D01*
X130583693Y-78138726D01*
X130583695Y-78138727D01*
X130670576Y-78152487D01*
X130715565Y-78177425D01*
X130734000Y-78225448D01*
X130733085Y-78238523D01*
X130731268Y-78249996D01*
X130731268Y-78250001D01*
X130751273Y-78376306D01*
X130809329Y-78490246D01*
X130809329Y-78490247D01*
X130899753Y-78580671D01*
X131013693Y-78638726D01*
X131013695Y-78638727D01*
X131117572Y-78655179D01*
X131162561Y-78680117D01*
X131180996Y-78728141D01*
X131180081Y-78741217D01*
X131161268Y-78859999D01*
X131161268Y-78860000D01*
X131181273Y-78986306D01*
X131239329Y-79100247D01*
X131329753Y-79190671D01*
X131443693Y-79248726D01*
X131443695Y-79248727D01*
X131540718Y-79264094D01*
X131569999Y-79268732D01*
X131569999Y-79268731D01*
X131570000Y-79268732D01*
X131696305Y-79248727D01*
X131810247Y-79190671D01*
X131900671Y-79100247D01*
X131958727Y-78986305D01*
X131978732Y-78860000D01*
X131958727Y-78733695D01*
X131958726Y-78733693D01*
X131958726Y-78733692D01*
X131958726Y-78733691D01*
X131913555Y-78645040D01*
X131907495Y-78633146D01*
X131899299Y-78599012D01*
X131899299Y-76750000D01*
X132421268Y-76750000D01*
X132441273Y-76876306D01*
X132499329Y-76990247D01*
X132589753Y-77080671D01*
X132703693Y-77138726D01*
X132703695Y-77138727D01*
X132830000Y-77158732D01*
X132956305Y-77138727D01*
X133070247Y-77080671D01*
X133098992Y-77051926D01*
X133145612Y-77030186D01*
X133152166Y-77029900D01*
X133807834Y-77029900D01*
X133856172Y-77047493D01*
X133861008Y-77051926D01*
X133892466Y-77083384D01*
X134006406Y-77141439D01*
X134006408Y-77141440D01*
X134132713Y-77161445D01*
X134259018Y-77141440D01*
X134372960Y-77083384D01*
X134463384Y-76992960D01*
X134521440Y-76879018D01*
X134541445Y-76752713D01*
X134521440Y-76626408D01*
X134463384Y-76512466D01*
X134372960Y-76422042D01*
X134259018Y-76363986D01*
X134259020Y-76363986D01*
X134132713Y-76343981D01*
X134006406Y-76363986D01*
X133892465Y-76422042D01*
X133866434Y-76448074D01*
X133819814Y-76469814D01*
X133813260Y-76470100D01*
X133152166Y-76470100D01*
X133103828Y-76452507D01*
X133098992Y-76448074D01*
X133070247Y-76419329D01*
X132956305Y-76361273D01*
X132956307Y-76361273D01*
X132830000Y-76341268D01*
X132703693Y-76361273D01*
X132589752Y-76419329D01*
X132499329Y-76509752D01*
X132441273Y-76623693D01*
X132421268Y-76749999D01*
X132421268Y-76750000D01*
X131899299Y-76750000D01*
X131899299Y-75753605D01*
X131916892Y-75705268D01*
X131921314Y-75700443D01*
X133281989Y-74339768D01*
X133292000Y-74332568D01*
X133291611Y-74332053D01*
X133297166Y-74327857D01*
X133297171Y-74327855D01*
X133330305Y-74291507D01*
X133331457Y-74290300D01*
X133345883Y-74275876D01*
X133348424Y-74272165D01*
X133351645Y-74268098D01*
X133374067Y-74243504D01*
X133378738Y-74231443D01*
X133386820Y-74216114D01*
X133394124Y-74205453D01*
X133401742Y-74173058D01*
X133403278Y-74168098D01*
X133415300Y-74137070D01*
X133415300Y-74124141D01*
X133417298Y-74106922D01*
X133417303Y-74106900D01*
X133420257Y-74094343D01*
X133415661Y-74061394D01*
X133415300Y-74056193D01*
X133415300Y-74016766D01*
X133432893Y-73968428D01*
X133437326Y-73963592D01*
X133440671Y-73960247D01*
X133498727Y-73846305D01*
X133518732Y-73720000D01*
X133515564Y-73700000D01*
X138628028Y-73700000D01*
X138648191Y-73827307D01*
X138706708Y-73942152D01*
X138797847Y-74033291D01*
X138797849Y-74033292D01*
X138912692Y-74091808D01*
X138912694Y-74091809D01*
X139007976Y-74106900D01*
X139022515Y-74106900D01*
X139034279Y-74107826D01*
X139039999Y-74108732D01*
X139040000Y-74108732D01*
X139040001Y-74108732D01*
X139045721Y-74107826D01*
X139057485Y-74106900D01*
X139217900Y-74106900D01*
X139266238Y-74124493D01*
X139291958Y-74169042D01*
X139293100Y-74182100D01*
X139293100Y-77852515D01*
X139292174Y-77864279D01*
X139291268Y-77869998D01*
X139292174Y-77875718D01*
X139293100Y-77887484D01*
X139293100Y-77902026D01*
X139308191Y-77997307D01*
X139366708Y-78112152D01*
X139457847Y-78203291D01*
X139457849Y-78203292D01*
X139572692Y-78261808D01*
X139572694Y-78261809D01*
X139670487Y-78277297D01*
X139699999Y-78281972D01*
X139700000Y-78281972D01*
X139700001Y-78281972D01*
X139720164Y-78278778D01*
X139827306Y-78261809D01*
X139942151Y-78203292D01*
X140033292Y-78112151D01*
X140091809Y-77997306D01*
X140106900Y-77902024D01*
X140106900Y-77887484D01*
X140107826Y-77875718D01*
X140108732Y-77870000D01*
X140107826Y-77864279D01*
X140106900Y-77852515D01*
X140106900Y-76190000D01*
X142751268Y-76190000D01*
X142771273Y-76316306D01*
X142823766Y-76419329D01*
X142829329Y-76430247D01*
X142919753Y-76520671D01*
X143033693Y-76578726D01*
X143033695Y-76578727D01*
X143160000Y-76598732D01*
X143286305Y-76578727D01*
X143400247Y-76520671D01*
X143490671Y-76430247D01*
X143548727Y-76316305D01*
X143560576Y-76241490D01*
X143581673Y-76200084D01*
X144999432Y-74782326D01*
X145046053Y-74760586D01*
X145052607Y-74760300D01*
X145098234Y-74760300D01*
X145146572Y-74777893D01*
X145151408Y-74782326D01*
X145154753Y-74785671D01*
X145268693Y-74843726D01*
X145268695Y-74843727D01*
X145395000Y-74863732D01*
X145521305Y-74843727D01*
X145635247Y-74785671D01*
X145725671Y-74695247D01*
X145783727Y-74581305D01*
X145803732Y-74455000D01*
X145783727Y-74328695D01*
X145725671Y-74214753D01*
X145635247Y-74124329D01*
X145521305Y-74066273D01*
X145521307Y-74066273D01*
X145395000Y-74046268D01*
X145268693Y-74066273D01*
X145154752Y-74124329D01*
X145151408Y-74127674D01*
X145104788Y-74149414D01*
X145098234Y-74149700D01*
X144957069Y-74149700D01*
X144944897Y-74147715D01*
X144944809Y-74148352D01*
X144937912Y-74147389D01*
X144888804Y-74149660D01*
X144887068Y-74149700D01*
X144866709Y-74149700D01*
X144862291Y-74150524D01*
X144857128Y-74151122D01*
X144823892Y-74152660D01*
X144823889Y-74152661D01*
X144812060Y-74157884D01*
X144795514Y-74163008D01*
X144782802Y-74165385D01*
X144782803Y-74165385D01*
X144782798Y-74165387D01*
X144754525Y-74182893D01*
X144749915Y-74185323D01*
X144719475Y-74198764D01*
X144710329Y-74207910D01*
X144696747Y-74218668D01*
X144685759Y-74225472D01*
X144665711Y-74252018D01*
X144662289Y-74255950D01*
X143149916Y-75768323D01*
X143108507Y-75789423D01*
X143033696Y-75801272D01*
X143033691Y-75801274D01*
X142919752Y-75859329D01*
X142829329Y-75949752D01*
X142771273Y-76063693D01*
X142751268Y-76189999D01*
X142751268Y-76190000D01*
X140106900Y-76190000D01*
X140106900Y-70632781D01*
X147294980Y-70632781D01*
X147326673Y-70660858D01*
X147466958Y-70734484D01*
X147620787Y-70772400D01*
X147779213Y-70772400D01*
X147933044Y-70734484D01*
X147933045Y-70734483D01*
X148073325Y-70660859D01*
X148073326Y-70660858D01*
X148105019Y-70632781D01*
X147700001Y-70227763D01*
X147699999Y-70227763D01*
X147294980Y-70632780D01*
X147294980Y-70632781D01*
X140106900Y-70632781D01*
X140106900Y-70537484D01*
X140107826Y-70525718D01*
X140108732Y-70520000D01*
X140107826Y-70514279D01*
X140106900Y-70502515D01*
X140106900Y-70487980D01*
X140106900Y-70487976D01*
X140091809Y-70392694D01*
X140033292Y-70277849D01*
X140033291Y-70277847D01*
X139942152Y-70186708D01*
X139827306Y-70128191D01*
X139827308Y-70128191D01*
X139775585Y-70119999D01*
X147042808Y-70119999D01*
X147061906Y-70277279D01*
X147118083Y-70425409D01*
X147118085Y-70425411D01*
X147186993Y-70525243D01*
X147592236Y-70120001D01*
X147807763Y-70120001D01*
X148213005Y-70525243D01*
X148281913Y-70425413D01*
X148281916Y-70425409D01*
X148338093Y-70277279D01*
X148357191Y-70119999D01*
X148338093Y-69962720D01*
X148281916Y-69814590D01*
X148281911Y-69814582D01*
X148213005Y-69714755D01*
X147807763Y-70119998D01*
X147807763Y-70120001D01*
X147592236Y-70120001D01*
X147592237Y-70120000D01*
X147592237Y-70119999D01*
X147186993Y-69714755D01*
X147118085Y-69814586D01*
X147061906Y-69962720D01*
X147042808Y-70119999D01*
X139775585Y-70119999D01*
X139700001Y-70108028D01*
X139699999Y-70108028D01*
X139572692Y-70128191D01*
X139457847Y-70186708D01*
X139366708Y-70277847D01*
X139308191Y-70392692D01*
X139293100Y-70487973D01*
X139293100Y-70502515D01*
X139292174Y-70514279D01*
X139291268Y-70520000D01*
X139292174Y-70525718D01*
X139293100Y-70537484D01*
X139293100Y-73217900D01*
X139275507Y-73266238D01*
X139230958Y-73291958D01*
X139217900Y-73293100D01*
X139057485Y-73293100D01*
X139045721Y-73292174D01*
X139040001Y-73291268D01*
X139039999Y-73291268D01*
X139034279Y-73292174D01*
X139022515Y-73293100D01*
X139007973Y-73293100D01*
X138912692Y-73308191D01*
X138797847Y-73366708D01*
X138706708Y-73457847D01*
X138648191Y-73572692D01*
X138628028Y-73699999D01*
X138628028Y-73700000D01*
X133515564Y-73700000D01*
X133498727Y-73593695D01*
X133440671Y-73479753D01*
X133350247Y-73389329D01*
X133236305Y-73331273D01*
X133236307Y-73331273D01*
X133110000Y-73311268D01*
X132983693Y-73331273D01*
X132869752Y-73389329D01*
X132779329Y-73479752D01*
X132721273Y-73593693D01*
X132701268Y-73719999D01*
X132701268Y-73720000D01*
X132721273Y-73846306D01*
X132760825Y-73923930D01*
X132767094Y-73974986D01*
X132746995Y-74011244D01*
X132128493Y-74629746D01*
X132081873Y-74651486D01*
X132032186Y-74638172D01*
X132002681Y-74596035D01*
X132001050Y-74588363D01*
X131998727Y-74573695D01*
X131940671Y-74459753D01*
X131850247Y-74369329D01*
X131736305Y-74311273D01*
X131736307Y-74311273D01*
X131610000Y-74291268D01*
X131483695Y-74311273D01*
X131483694Y-74311273D01*
X131477850Y-74312199D01*
X131477404Y-74309387D01*
X131436906Y-74307960D01*
X131398690Y-74273527D01*
X131389900Y-74238245D01*
X131389900Y-73532166D01*
X131407493Y-73483828D01*
X131411926Y-73478991D01*
X131440671Y-73450247D01*
X131498727Y-73336305D01*
X131518732Y-73210000D01*
X131498727Y-73083695D01*
X131440671Y-72969753D01*
X131350247Y-72879329D01*
X131236305Y-72821273D01*
X131236307Y-72821273D01*
X131110000Y-72801268D01*
X130983693Y-72821273D01*
X130869752Y-72879329D01*
X130779329Y-72969752D01*
X130721273Y-73083693D01*
X130701268Y-73209999D01*
X130701268Y-73210000D01*
X130721273Y-73336306D01*
X130779329Y-73450247D01*
X130808074Y-73478992D01*
X130829814Y-73525612D01*
X130830100Y-73532166D01*
X130830100Y-74446780D01*
X130812507Y-74495118D01*
X130808074Y-74499955D01*
X130553036Y-74754992D01*
X130543515Y-74761846D01*
X130543960Y-74762436D01*
X130538401Y-74766633D01*
X130508085Y-74799887D01*
X130506888Y-74801141D01*
X130493740Y-74814290D01*
X130493737Y-74814294D01*
X130491539Y-74817502D01*
X130488307Y-74821582D01*
X130467904Y-74843964D01*
X130467900Y-74843970D01*
X130463879Y-74854348D01*
X130455802Y-74869671D01*
X130449514Y-74878850D01*
X130449513Y-74878853D01*
X130442581Y-74908329D01*
X130441039Y-74913307D01*
X130430100Y-74941546D01*
X130430100Y-74952671D01*
X130428103Y-74969886D01*
X130425556Y-74980715D01*
X130425556Y-74980718D01*
X130429739Y-75010704D01*
X130430100Y-75015905D01*
X130430100Y-77427834D01*
X130412507Y-77476172D01*
X130408074Y-77481008D01*
X130379329Y-77509752D01*
X130321273Y-77623693D01*
X130301268Y-77749999D01*
X130301268Y-77750000D01*
X100600000Y-77750000D01*
X100600000Y-71680000D01*
X132221268Y-71680000D01*
X132241273Y-71806306D01*
X132251463Y-71826305D01*
X132299329Y-71920247D01*
X132389753Y-72010671D01*
X132503693Y-72068726D01*
X132503695Y-72068727D01*
X132630000Y-72088732D01*
X132756305Y-72068727D01*
X132870247Y-72010671D01*
X132960671Y-71920247D01*
X133018727Y-71806305D01*
X133034142Y-71708978D01*
X133046079Y-71687443D01*
X133037764Y-71673604D01*
X133037315Y-71671058D01*
X133018727Y-71553695D01*
X132960671Y-71439753D01*
X132960670Y-71439752D01*
X132960669Y-71439750D01*
X132957326Y-71436407D01*
X132935586Y-71389787D01*
X132935300Y-71383233D01*
X132935300Y-71340633D01*
X132952893Y-71292295D01*
X132957314Y-71287470D01*
X133181726Y-71063057D01*
X133228345Y-71041319D01*
X133278032Y-71054633D01*
X133307537Y-71096770D01*
X133310099Y-71116233D01*
X133310099Y-71377832D01*
X133292506Y-71426170D01*
X133288075Y-71431005D01*
X133259329Y-71459751D01*
X133201273Y-71573693D01*
X133185857Y-71671021D01*
X133173919Y-71692556D01*
X133182234Y-71706394D01*
X133182690Y-71708979D01*
X133201273Y-71826306D01*
X133259329Y-71940247D01*
X133349753Y-72030671D01*
X133463693Y-72088726D01*
X133463695Y-72088727D01*
X133590000Y-72108732D01*
X133716305Y-72088727D01*
X133830247Y-72030671D01*
X133920671Y-71940247D01*
X133978727Y-71826305D01*
X133998732Y-71700000D01*
X133978727Y-71573695D01*
X133920671Y-71459753D01*
X133891926Y-71431008D01*
X133870186Y-71384388D01*
X133869900Y-71377834D01*
X133869900Y-70837085D01*
X133887493Y-70788747D01*
X133891915Y-70783923D01*
X134206960Y-70468877D01*
X134216486Y-70462027D01*
X134216038Y-70461433D01*
X134221595Y-70457235D01*
X134221599Y-70457234D01*
X134251931Y-70423960D01*
X134253063Y-70422774D01*
X134266258Y-70409581D01*
X134268461Y-70406363D01*
X134271697Y-70402278D01*
X134292098Y-70379901D01*
X134296117Y-70369523D01*
X134304197Y-70354194D01*
X134310486Y-70345016D01*
X134317418Y-70315537D01*
X134318961Y-70310559D01*
X134320778Y-70305868D01*
X134329900Y-70282322D01*
X134329900Y-70271192D01*
X134331897Y-70253975D01*
X134334443Y-70243151D01*
X134330261Y-70213167D01*
X134329900Y-70207967D01*
X134329900Y-70042166D01*
X134347493Y-69993828D01*
X134351926Y-69988991D01*
X134380671Y-69960247D01*
X134438727Y-69846305D01*
X134458732Y-69720000D01*
X134440869Y-69607217D01*
X147294980Y-69607217D01*
X147699999Y-70012237D01*
X147700001Y-70012237D01*
X148105018Y-69607218D01*
X148105018Y-69607217D01*
X148073326Y-69579141D01*
X147933041Y-69505515D01*
X147779213Y-69467600D01*
X147620787Y-69467600D01*
X147466955Y-69505515D01*
X147466954Y-69505516D01*
X147326675Y-69579139D01*
X147326669Y-69579143D01*
X147294980Y-69607216D01*
X147294980Y-69607217D01*
X134440869Y-69607217D01*
X134438727Y-69593695D01*
X134380671Y-69479753D01*
X134374592Y-69473674D01*
X134352852Y-69427054D01*
X134366166Y-69377367D01*
X134408303Y-69347862D01*
X134427766Y-69345300D01*
X135513234Y-69345300D01*
X135561572Y-69362893D01*
X135566408Y-69367326D01*
X135569753Y-69370671D01*
X135683693Y-69428726D01*
X135683695Y-69428727D01*
X135779202Y-69443854D01*
X135809999Y-69448732D01*
X135809999Y-69448731D01*
X135810000Y-69448732D01*
X135936305Y-69428727D01*
X136050247Y-69370671D01*
X136140671Y-69280247D01*
X136198727Y-69166305D01*
X136199726Y-69160000D01*
X145541268Y-69160000D01*
X145561273Y-69286306D01*
X145603124Y-69368443D01*
X145619329Y-69400247D01*
X145709753Y-69490671D01*
X145823693Y-69548726D01*
X145823695Y-69548727D01*
X145950000Y-69568732D01*
X146076305Y-69548727D01*
X146190247Y-69490671D01*
X146201825Y-69479092D01*
X146248444Y-69457352D01*
X146298131Y-69470664D01*
X146308174Y-69479092D01*
X146349753Y-69520671D01*
X146463693Y-69578726D01*
X146463695Y-69578727D01*
X146590000Y-69598732D01*
X146716305Y-69578727D01*
X146830247Y-69520671D01*
X146920671Y-69430247D01*
X146978727Y-69316305D01*
X146998732Y-69190000D01*
X146998731Y-69189998D01*
X146999218Y-69186928D01*
X147020316Y-69145520D01*
X147406128Y-68759708D01*
X147452747Y-68737969D01*
X147477294Y-68739867D01*
X147614555Y-68773700D01*
X147614558Y-68773700D01*
X147785442Y-68773700D01*
X147785445Y-68773700D01*
X147951368Y-68732803D01*
X148102683Y-68653387D01*
X148230595Y-68540066D01*
X148327671Y-68399427D01*
X148388270Y-68239643D01*
X148408868Y-68070000D01*
X148388270Y-67900357D01*
X148327671Y-67740573D01*
X148325569Y-67737528D01*
X148230598Y-67599938D01*
X148230594Y-67599933D01*
X148166065Y-67542765D01*
X148102683Y-67486613D01*
X148102680Y-67486611D01*
X147951370Y-67407198D01*
X147951369Y-67407197D01*
X147909887Y-67396972D01*
X147785445Y-67366300D01*
X147614555Y-67366300D01*
X147515001Y-67390838D01*
X147448630Y-67407197D01*
X147448629Y-67407198D01*
X147297319Y-67486611D01*
X147297318Y-67486612D01*
X147169405Y-67599933D01*
X147169401Y-67599938D01*
X147072331Y-67740568D01*
X147072328Y-67740574D01*
X147011730Y-67900355D01*
X147011729Y-67900357D01*
X147011730Y-67900357D01*
X146991132Y-68070000D01*
X147011730Y-68239643D01*
X147028252Y-68283207D01*
X147028943Y-68334641D01*
X147011113Y-68363047D01*
X146610715Y-68763445D01*
X146569306Y-68784545D01*
X146463693Y-68801273D01*
X146349746Y-68859332D01*
X146349293Y-68859662D01*
X146348851Y-68859788D01*
X146344480Y-68862016D01*
X146344046Y-68861165D01*
X146299844Y-68873834D01*
X146252854Y-68852905D01*
X146230311Y-68806668D01*
X146229900Y-68798818D01*
X146229900Y-67917085D01*
X146247493Y-67868747D01*
X146251915Y-67863922D01*
X147406128Y-66709708D01*
X147452747Y-66687969D01*
X147477294Y-66689867D01*
X147614555Y-66723700D01*
X147614558Y-66723700D01*
X147785442Y-66723700D01*
X147785445Y-66723700D01*
X147951368Y-66682803D01*
X148102683Y-66603387D01*
X148230595Y-66490066D01*
X148327671Y-66349427D01*
X148388270Y-66189643D01*
X148408868Y-66020000D01*
X148388270Y-65850357D01*
X148327671Y-65690573D01*
X148230595Y-65549934D01*
X148102683Y-65436613D01*
X148102680Y-65436611D01*
X147951370Y-65357198D01*
X147951369Y-65357197D01*
X147909887Y-65346972D01*
X147785445Y-65316300D01*
X147614555Y-65316300D01*
X147515001Y-65340838D01*
X147448630Y-65357197D01*
X147448629Y-65357198D01*
X147297319Y-65436611D01*
X147297318Y-65436612D01*
X147169405Y-65549933D01*
X147169401Y-65549938D01*
X147072331Y-65690568D01*
X147072328Y-65690574D01*
X147011730Y-65850355D01*
X147011729Y-65850357D01*
X147011730Y-65850357D01*
X146991132Y-66020000D01*
X147011730Y-66189643D01*
X147028252Y-66233207D01*
X147028943Y-66284641D01*
X147011113Y-66313047D01*
X145793038Y-67531122D01*
X145783515Y-67537979D01*
X145783960Y-67538568D01*
X145778401Y-67542765D01*
X145748085Y-67576019D01*
X145746888Y-67577273D01*
X145733740Y-67590422D01*
X145733737Y-67590426D01*
X145731539Y-67593634D01*
X145728307Y-67597714D01*
X145707904Y-67620096D01*
X145707900Y-67620102D01*
X145703879Y-67630480D01*
X145695802Y-67645803D01*
X145689514Y-67654982D01*
X145689513Y-67654985D01*
X145682581Y-67684461D01*
X145681039Y-67689439D01*
X145670100Y-67717678D01*
X145670100Y-67728803D01*
X145668103Y-67746018D01*
X145665556Y-67756847D01*
X145665556Y-67756850D01*
X145669739Y-67786836D01*
X145670100Y-67792037D01*
X145670100Y-68837832D01*
X145652507Y-68886170D01*
X145648075Y-68891006D01*
X145619329Y-68919752D01*
X145561273Y-69033693D01*
X145541268Y-69159999D01*
X145541268Y-69160000D01*
X136199726Y-69160000D01*
X136218732Y-69040000D01*
X136198727Y-68913695D01*
X136140671Y-68799753D01*
X136050247Y-68709329D01*
X135936305Y-68651273D01*
X135936307Y-68651273D01*
X135810000Y-68631268D01*
X135683693Y-68651273D01*
X135569752Y-68709329D01*
X135566408Y-68712674D01*
X135519788Y-68734414D01*
X135513234Y-68734700D01*
X134150016Y-68734700D01*
X134137844Y-68732715D01*
X134137756Y-68733352D01*
X134130860Y-68732389D01*
X134081761Y-68734660D01*
X134080024Y-68734700D01*
X134059658Y-68734700D01*
X134058640Y-68734890D01*
X134055238Y-68735525D01*
X134050072Y-68736123D01*
X134016841Y-68737661D01*
X134016838Y-68737662D01*
X134005010Y-68742884D01*
X133988461Y-68748008D01*
X133975751Y-68750384D01*
X133975749Y-68750385D01*
X133947465Y-68767898D01*
X133942854Y-68770328D01*
X133912421Y-68783766D01*
X133903279Y-68792908D01*
X133889697Y-68803666D01*
X133878706Y-68810472D01*
X133858655Y-68837022D01*
X133855233Y-68840954D01*
X133424008Y-69272178D01*
X133413998Y-69279384D01*
X133414385Y-69279896D01*
X133408825Y-69284094D01*
X133375710Y-69320419D01*
X133374513Y-69321673D01*
X133360120Y-69336066D01*
X133360115Y-69336072D01*
X133357575Y-69339780D01*
X133354345Y-69343856D01*
X133331932Y-69368442D01*
X133327260Y-69380502D01*
X133319183Y-69395825D01*
X133311877Y-69406491D01*
X133311875Y-69406496D01*
X133304260Y-69438875D01*
X133302718Y-69443854D01*
X133290700Y-69474878D01*
X133290700Y-69487801D01*
X133288703Y-69505017D01*
X133285743Y-69517602D01*
X133285743Y-69517603D01*
X133290339Y-69550548D01*
X133290700Y-69555750D01*
X133290700Y-70059418D01*
X133273107Y-70107756D01*
X133268674Y-70112592D01*
X132458008Y-70923257D01*
X132447998Y-70930463D01*
X132448385Y-70930975D01*
X132442825Y-70935173D01*
X132409710Y-70971498D01*
X132408513Y-70972752D01*
X132394120Y-70987145D01*
X132394115Y-70987151D01*
X132391575Y-70990859D01*
X132388345Y-70994935D01*
X132365932Y-71019521D01*
X132361260Y-71031581D01*
X132353183Y-71046904D01*
X132345877Y-71057570D01*
X132345875Y-71057575D01*
X132338260Y-71089954D01*
X132336718Y-71094933D01*
X132324700Y-71125957D01*
X132324700Y-71138880D01*
X132322703Y-71156096D01*
X132319743Y-71168681D01*
X132319743Y-71168682D01*
X132324339Y-71201627D01*
X132324700Y-71206829D01*
X132324700Y-71383233D01*
X132307107Y-71431571D01*
X132302674Y-71436407D01*
X132299330Y-71439750D01*
X132241273Y-71553693D01*
X132221268Y-71679999D01*
X132221268Y-71680000D01*
X100600000Y-71680000D01*
X100600000Y-68104298D01*
X131462300Y-68104298D01*
X131477694Y-68206433D01*
X131537559Y-68330745D01*
X131537560Y-68330747D01*
X131601287Y-68399427D01*
X131631405Y-68431886D01*
X131750895Y-68500874D01*
X131885410Y-68531576D01*
X132022998Y-68521265D01*
X132151435Y-68470857D01*
X132259308Y-68384832D01*
X132337031Y-68270832D01*
X132377700Y-68138987D01*
X132377700Y-65035699D01*
X132362306Y-64933567D01*
X132302441Y-64809256D01*
X132302440Y-64809255D01*
X132302440Y-64809254D01*
X132302439Y-64809252D01*
X132208594Y-64708113D01*
X132089105Y-64639126D01*
X131954590Y-64608424D01*
X131817002Y-64618734D01*
X131688563Y-64669143D01*
X131580691Y-64755168D01*
X131580687Y-64755173D01*
X131502972Y-64869162D01*
X131502967Y-64869171D01*
X131462300Y-65001013D01*
X131462300Y-68104298D01*
X100600000Y-68104298D01*
X100600000Y-60675200D01*
X100617593Y-60626862D01*
X100662142Y-60601142D01*
X100675200Y-60600000D01*
X149324800Y-60600000D01*
X149373138Y-60617593D01*
G37*
%TD.AperFunction*%
%TD*%
M02*
