%TF.GenerationSoftware,KiCad,Pcbnew,7.0.4-0*%
%TF.CreationDate,2024-03-15T14:37:27+08:00*%
%TF.ProjectId,hw,68772e6b-6963-4616-945f-706362585858,rev?*%
%TF.SameCoordinates,Original*%
%TF.FileFunction,Legend,Top*%
%TF.FilePolarity,Positive*%
%FSLAX46Y46*%
G04 Gerber Fmt 4.6, Leading zero omitted, Abs format (unit mm)*
G04 Created by KiCad (PCBNEW 7.0.4-0) date 2024-03-15 14:37:27*
%MOMM*%
%LPD*%
G01*
G04 APERTURE LIST*
%ADD10C,0.100000*%
%ADD11C,0.120000*%
G04 APERTURE END LIST*
D10*
X140107693Y-83230038D02*
X139536265Y-83230038D01*
X139821979Y-83230038D02*
X139821979Y-81230038D01*
X139821979Y-81230038D02*
X139726741Y-81515752D01*
X139726741Y-81515752D02*
X139631503Y-81706228D01*
X139631503Y-81706228D02*
X139536265Y-81801466D01*
X140536265Y-83039561D02*
X140583884Y-83134800D01*
X140583884Y-83134800D02*
X140536265Y-83230038D01*
X140536265Y-83230038D02*
X140488646Y-83134800D01*
X140488646Y-83134800D02*
X140536265Y-83039561D01*
X140536265Y-83039561D02*
X140536265Y-83230038D01*
X141202931Y-81230038D02*
X141298169Y-81230038D01*
X141298169Y-81230038D02*
X141393407Y-81325276D01*
X141393407Y-81325276D02*
X141441026Y-81420514D01*
X141441026Y-81420514D02*
X141488645Y-81610990D01*
X141488645Y-81610990D02*
X141536264Y-81991942D01*
X141536264Y-81991942D02*
X141536264Y-82468133D01*
X141536264Y-82468133D02*
X141488645Y-82849085D01*
X141488645Y-82849085D02*
X141441026Y-83039561D01*
X141441026Y-83039561D02*
X141393407Y-83134800D01*
X141393407Y-83134800D02*
X141298169Y-83230038D01*
X141298169Y-83230038D02*
X141202931Y-83230038D01*
X141202931Y-83230038D02*
X141107693Y-83134800D01*
X141107693Y-83134800D02*
X141060074Y-83039561D01*
X141060074Y-83039561D02*
X141012455Y-82849085D01*
X141012455Y-82849085D02*
X140964836Y-82468133D01*
X140964836Y-82468133D02*
X140964836Y-81991942D01*
X140964836Y-81991942D02*
X141012455Y-81610990D01*
X141012455Y-81610990D02*
X141060074Y-81420514D01*
X141060074Y-81420514D02*
X141107693Y-81325276D01*
X141107693Y-81325276D02*
X141202931Y-81230038D01*
X141964836Y-83039561D02*
X142012455Y-83134800D01*
X142012455Y-83134800D02*
X141964836Y-83230038D01*
X141964836Y-83230038D02*
X141917217Y-83134800D01*
X141917217Y-83134800D02*
X141964836Y-83039561D01*
X141964836Y-83039561D02*
X141964836Y-83230038D01*
X142345788Y-81230038D02*
X142964835Y-81230038D01*
X142964835Y-81230038D02*
X142631502Y-81991942D01*
X142631502Y-81991942D02*
X142774359Y-81991942D01*
X142774359Y-81991942D02*
X142869597Y-82087180D01*
X142869597Y-82087180D02*
X142917216Y-82182419D01*
X142917216Y-82182419D02*
X142964835Y-82372895D01*
X142964835Y-82372895D02*
X142964835Y-82849085D01*
X142964835Y-82849085D02*
X142917216Y-83039561D01*
X142917216Y-83039561D02*
X142869597Y-83134800D01*
X142869597Y-83134800D02*
X142774359Y-83230038D01*
X142774359Y-83230038D02*
X142488645Y-83230038D01*
X142488645Y-83230038D02*
X142393407Y-83134800D01*
X142393407Y-83134800D02*
X142345788Y-83039561D01*
D11*
%TO.C,TP6*%
X148400000Y-66020000D02*
G75*
G03*
X148400000Y-66020000I-700000J0D01*
G01*
%TO.C,TP5*%
X148400000Y-68070000D02*
G75*
G03*
X148400000Y-68070000I-700000J0D01*
G01*
%TO.C,TP7*%
X148400000Y-70120000D02*
G75*
G03*
X148400000Y-70120000I-700000J0D01*
G01*
%TD*%
M02*
