M48
; DRILL file {KiCad 7.0.4-0} date 2024 March 15, Friday 14:37:32
; FORMAT={-:-/ absolute / metric / decimal}
; #@! TF.CreationDate,2024-03-15T14:37:32+08:00
; #@! TF.GenerationSoftware,Kicad,Pcbnew,7.0.4-0
; #@! TF.FileFunction,Plated,1,2,PTH
FMAT,2
METRIC
; #@! TA.AperFunction,Plated,PTH,ViaDrill
T1C0.300
; #@! TA.AperFunction,Plated,PTH,ComponentDrill
T2C0.300
%
G90
G05
T1
X101.0Y-61.0
X101.0Y-63.0
X101.0Y-65.0
X101.0Y-67.0
X101.0Y-69.0
X101.0Y-71.0
X101.0Y-73.0
X101.0Y-75.0
X101.0Y-77.0
X101.0Y-79.0
X101.0Y-81.0
X101.0Y-83.0
X101.0Y-85.0
X103.0Y-61.0
X103.0Y-85.0
X105.0Y-61.0
X105.0Y-85.0
X107.0Y-61.0
X107.0Y-85.0
X109.0Y-61.0
X109.0Y-85.0
X111.0Y-61.0
X111.0Y-85.0
X113.0Y-61.0
X113.0Y-85.0
X115.0Y-61.0
X115.0Y-85.0
X117.0Y-61.0
X117.0Y-85.0
X119.0Y-61.0
X119.0Y-85.0
X121.0Y-61.0
X121.0Y-85.0
X123.0Y-61.0
X123.0Y-85.0
X125.0Y-61.0
X125.0Y-85.0
X127.0Y-61.0
X127.0Y-85.0
X127.83Y-66.02
X127.83Y-68.02
X127.83Y-70.02
X127.83Y-72.02
X127.83Y-74.02
X127.83Y-76.02
X127.83Y-78.02
X127.83Y-80.02
X129.0Y-61.0
X129.0Y-85.0
X130.71Y-77.75
X130.97Y-71.6
X131.0Y-61.0
X131.0Y-85.0
X131.11Y-73.21
X131.14Y-78.25
X131.57Y-78.86
X131.61Y-74.7
X131.92Y-65.07
X131.92Y-68.07
X132.01Y-69.0
X132.11Y-70.88
X132.27Y-76.25
X132.63Y-71.68
X132.64Y-63.28
X132.83Y-76.75
X133.0Y-61.0
X133.0Y-79.0
X133.0Y-81.0
X133.0Y-83.0
X133.0Y-85.0
X133.11Y-73.72
X133.2Y-75.18
X133.48Y-66.54
X133.59Y-71.7
X134.05Y-69.72
X134.133Y-76.753
X134.81Y-69.83
X134.92Y-66.52
X134.94Y-68.31
X134.96Y-71.52
X135.0Y-61.0
X135.0Y-79.0
X135.2Y-70.7
X135.81Y-69.04
X136.7Y-71.1
X137.0Y-61.0
X137.0Y-79.0
X138.79Y-70.65
X139.0Y-79.0
X139.04Y-73.7
X139.7Y-70.52
X139.7Y-77.87
X141.0Y-79.0
X141.064Y-71.804
X141.064Y-72.947
X141.064Y-74.09
X142.207Y-71.804
X142.207Y-72.947
X142.207Y-74.09
X143.0Y-79.0
X143.16Y-76.19
X143.242Y-76.902
X143.35Y-71.804
X143.35Y-72.947
X143.35Y-74.09
X143.46Y-68.16
X144.05Y-77.71
X144.65Y-70.46
X144.65Y-78.3
X145.0Y-61.0
X145.0Y-79.0
X145.012Y-76.202
X145.35Y-68.38
X145.395Y-74.455
X145.82Y-77.01
X145.95Y-69.16
X146.1Y-72.53
X146.52Y-68.38
X146.59Y-69.19
X146.628Y-77.818
X146.73Y-71.69
X147.0Y-61.0
X147.0Y-79.0
X149.0Y-61.0
X149.0Y-63.0
X149.0Y-65.0
X149.0Y-67.0
X149.0Y-69.0
X149.0Y-71.0
X149.0Y-73.0
X149.0Y-75.0
X149.0Y-77.0
X149.0Y-79.0
T2
X147.9Y-79.4
T0
M30
